<?xml version="1.0" encoding="utf-8"?>
<!-- Generator: Adobe Illustrator 23.0.1, SVG Export Plug-In . SVG Version: 6.00 Build 0)  -->
<svg version="1.1" id="Layer_1" xmlns="http://www.w3.org/2000/svg" xmlns:xlink="http://www.w3.org/1999/xlink" x="0px" y="0px"
	 viewBox="0 0 84 84" style="enable-background:new 0 0 84 84;" xml:space="preserve">
<path d="M83.8,37.9l-12-30C71.4,6.8,70.2,6,69,6H50.4c-1.2-3.5-4.5-6-8.4-6s-7.2,2.5-8.4,6H15c-1.2,0-2.4,0.8-2.8,1.9l-12,30
	C0.1,38.2,0,39.2,0,39.1C0.1,47.3,6.8,54,15,54s14.9-6.7,15-14.9c0-0.3-0.2-1.1-0.2-1.2L19.4,12h14.1c0.9,2.5,2.9,4.5,5.4,5.4V66H27
	c-5,0-9,4-9,9v6c0,1.7,1.3,3,3,3h42c1.7,0,3-1.3,3-3v-6c0-5-4-9-9-9H45V17.4c2.5-0.9,4.5-2.9,5.4-5.4h14.1L54.2,37.9
	c-0.1,0.3-0.2,1.3-0.2,1.2C54.1,47.3,60.8,54,69,54s14.9-6.7,15-14.9C84,38.8,83.8,38,83.8,37.9z M60,75v3H24v-3c0-1.7,1.3-3,3-3h30
	C58.6,72,60,73.3,60,75z M76.6,36H61.4L69,17.1L76.6,36z M15,17.1L22.6,36H7.4L15,17.1z M15,48c-3.9,0-7.2-2.5-8.5-6h17
	C22.2,45.5,18.9,48,15,48z M42,12c-1.7,0-3-1.3-3-3s1.3-3,3-3s3,1.3,3,3S43.6,12,42,12z M69,48c-3.9,0-7.2-2.5-8.5-6h17
	C76.2,45.5,72.9,48,69,48z"/>
</svg>
