<?xml version="1.0" encoding="utf-8"?>
<!-- Generator: Adobe Illustrator 23.0.1, SVG Export Plug-In . SVG Version: 6.00 Build 0)  -->
<svg version="1.1"
	 id="Layer_1" xmlns:cc="http://creativecommons.org/ns#" xmlns:dc="http://purl.org/dc/elements/1.1/" xmlns:inkscape="http://www.inkscape.org/namespaces/inkscape" xmlns:rdf="http://www.w3.org/1999/02/22-rdf-syntax-ns#" xmlns:sodipodi="http://sodipodi.sourceforge.net/DTD/sodipodi-0.dtd" xmlns:svg="http://www.w3.org/2000/svg"
	 xmlns="http://www.w3.org/2000/svg" xmlns:xlink="http://www.w3.org/1999/xlink" x="0px" y="0px" viewBox="0 0 15.4 15.3"
	 style="enable-background:new 0 0 15.4 15.3;" xml:space="preserve">
<style type="text/css">
	.st0{fill:none;stroke:#000000;stroke-width:0.5;stroke-miterlimit:10;}
</style>
<g transform="translate(0,-288.53332)">
	<g transform="matrix(0.18708867,-0.18708867,0.18708867,0.18708867,-137.34156,19.803181)">
		<g transform="matrix(1.0477145,-5.8263477e-4,-5.854137e-4,1.0531841,-372.17887,-17.572702)">
			<g>
				<g transform="translate(-10,27.22658)">
					<path class="st0" d="M37.4,1036.1c0-1.9,1.5-3.4,3.4-3.4c1.9,0,3.4,1.5,3.4,3.4v4.5"/>
					<g transform="translate(8.2500004,-0.24998262)">
						<path class="st0" d="M15.7,1048.1c0,1.9-1.5,3.4-3.4,3.4S9,1050,9,1048.1l0-11.8c0-1.9,1.5-3.4,3.4-3.4s3.4,1.5,3.4,3.4"/>
						<path class="st0" d="M22.4,1047v1.1c0,1.9-1.5,3.4-3.4,3.4s-3.4-1.5-3.4-3.4l0-11.8c0-1.9,1.5-3.4,3.4-3.4s3.4,1.5,3.4,3.4
							l0,3.9"/>
					</g>
					<g transform="translate(15.75)">
						<path class="st0" d="M2,1049.6l0,6.2c0,2.9,1.7,5.7,3.9,6.4l0,25.2 M24.7,1087.4l0-25.2c2.8-0.8,4.8-3.4,4.8-6.4l0-12.4
							c0-1.9-1.5-3.4-3.4-3.4l-10.7,0.1c-1.9,0-3.4,1.5-3.4,3.4c0,1.9,1.5,3.4,3.4,3.4h6.7l0,2.8c-3.1,0-5.6,2.5-5.6,5.6"/>
					</g>
					<path class="st0" d="M34,1051.3c-1.9,0-3.4-1.5-3.4-3.4c0-0.4,0-0.7,0-1.1"/>
					<path class="st0" d="M30.7,1036.1c0-1.9,1.5-3.4,3.4-3.4c1.9,0,3.4,1.5,3.4,3.4v3.9"/>
				</g>
			</g>
		</g>
		<path class="st0" d="M-345.9,1154v-16.8"/>
		<path class="st0" d="M-345.9,1135v-2.2"/>
	</g>
</g>
</svg>
