<?xml version="1.0" encoding="utf-8"?>
<!-- Generator: Adobe Illustrator 23.0.1, SVG Export Plug-In . SVG Version: 6.00 Build 0)  -->
<svg version="1.1" id="Layer_1" xmlns="http://www.w3.org/2000/svg" xmlns:xlink="http://www.w3.org/1999/xlink" x="0px" y="0px"
	 viewBox="0 0 23.4 23.5" style="enable-background:new 0 0 23.4 23.5;" xml:space="preserve">
<style type="text/css">
	.st0{fill:none;stroke:#000000;stroke-miterlimit:10;}
</style>
<path class="st0" d="M2.7,6L0.6,2.5L2,1.1l3.5,2.1v1.4l3.6,3.6c0,0.1,0,0.2,0,0.3L7.8,9.7L4.1,6H2.7z M17.7,14.5c-0.3,0-0.5,0-0.8,0
	l0,0c-0.7,0-1.3-0.1-1.9-0.2l-2.1,2.4l4.7,5.3c1.1,1.2,3,1.3,4.1,0.1c1.2-1.2,1.1-3-0.1-4.1L17.7,14.5z M21.1,10.7
	c1.6-1.6,2.1-4,1.5-6.1c-0.1-0.4-0.6-0.5-0.8-0.2l-3.5,3.5l-2.8-2.8L19,1.6c0.3-0.3,0.2-0.7-0.2-0.8c-2.1-0.7-4.5-0.2-6.1,1.5
	c-1.8,1.8-2.2,4.6-1.2,6.8L1.5,18c-1.2,1.1-1.3,3-0.1,4.1l0,0c1.2,1.2,3,1.1,4.1-0.1l8.9-10C16.6,13,19.3,12.6,21.1,10.7z"/>
</svg>
